<svg width="28" height="28" viewBox="0 0 28 28" fill="none" xmlns="http://www.w3.org/2000/svg">
<path d="M5.83333 9.33334H15.6917H15.1667H15.575H5.83333ZM6.3 7.00001H21.7L20.7083 5.83334H7.29167L6.3 7.00001ZM11.6667 14.875L14 13.7083L16.3333 14.875V9.33334H11.6667V14.875ZM16.975 24.5H5.83333C5.19167 24.5 4.64256 24.2717 4.186 23.8152C3.72944 23.3586 3.50078 22.8091 3.5 22.1667V7.61251C3.5 7.34028 3.54394 7.07778 3.63183 6.82501C3.71972 6.57223 3.85078 6.33889 4.025 6.12501L5.48333 4.34584C5.69722 4.07362 5.96439 3.8644 6.28483 3.71817C6.60528 3.57195 6.94089 3.49923 7.29167 3.50001H20.7083C21.0583 3.50001 21.3939 3.57312 21.7152 3.71934C22.0364 3.86556 22.3036 4.07439 22.5167 4.34584L23.975 6.12501C24.15 6.33889 24.2814 6.57223 24.3693 6.82501C24.4572 7.07778 24.5008 7.34028 24.5 7.61251V13.3292C24.1306 13.1931 23.7514 13.0861 23.3625 13.0083C22.9736 12.9306 22.575 12.8917 22.1667 12.8917V9.33334H18.6667V13.7958C17.9861 14.1847 17.3931 14.6662 16.8875 15.2402C16.3819 15.8142 15.9833 16.4605 15.6917 17.1792L14 16.3333L9.33333 18.6667V9.33334H5.83333V22.1667H15.575C15.7306 22.6139 15.925 23.032 16.1583 23.4208C16.3917 23.8097 16.6639 24.1695 16.975 24.5ZM21 24.5V21H17.5V18.6667H21V15.1667H23.3333V18.6667H26.8333V21H23.3333V24.5H21Z" fill="#9810FA"/>
</svg>
