<svg width="15" height="15" viewBox="0 0 15 15" fill="none" xmlns="http://www.w3.org/2000/svg">
<path d="M8.2806 10.0464C8.41388 10.1076 8.56402 10.1216 8.70631 10.0861C8.84859 10.0505 8.97453 9.96758 9.06337 9.85089L9.29245 9.55082C9.41267 9.39053 9.56856 9.26043 9.74777 9.17082C9.92698 9.08122 10.1246 9.03457 10.325 9.03457H12.2609C12.6032 9.03457 12.9315 9.17055 13.1735 9.41259C13.4155 9.65462 13.5515 9.9829 13.5515 10.3252V12.2611C13.5515 12.6034 13.4155 12.9317 13.1735 13.1737C12.9315 13.4158 12.6032 13.5518 12.2609 13.5518C9.18023 13.5518 6.22575 12.328 4.0474 10.1496C1.86905 7.97127 0.645264 5.01679 0.645264 1.93613C0.645264 1.59384 0.78124 1.26556 1.02328 1.02352C1.26532 0.781484 1.59359 0.645508 1.93589 0.645508H3.87183C4.21412 0.645508 4.5424 0.781484 4.78444 1.02352C5.02647 1.26556 5.16245 1.59384 5.16245 1.93613V3.87207C5.16245 4.07243 5.1158 4.27005 5.0262 4.44926C4.93659 4.62847 4.80649 4.78435 4.6462 4.90457L4.34419 5.13108C4.22573 5.22153 4.14222 5.35021 4.10788 5.49526C4.07353 5.6403 4.09045 5.79276 4.15576 5.92675C5.0377 7.71805 6.4882 9.16673 8.2806 10.0464Z" stroke="#99A1AF" stroke-width="1.29062" stroke-linecap="round" stroke-linejoin="round"/>
</svg>
