<svg width="24" height="24" viewBox="0 0 24 24" fill="none" xmlns="http://www.w3.org/2000/svg">
<path d="M0 2.625C0 1.176 1.176 0 2.625 0H21.375C22.824 0 24 1.176 24 2.625V21.375C24 22.0712 23.7234 22.7389 23.2312 23.2312C22.7389 23.7234 22.0712 24 21.375 24H8.625C8.32663 24 8.04048 23.8815 7.8295 23.6705C7.61853 23.4595 7.5 23.1734 7.5 22.875C7.5 22.5766 7.61853 22.2905 7.8295 22.0795C8.04048 21.8685 8.32663 21.75 8.625 21.75H21.375C21.4745 21.75 21.5698 21.7105 21.6402 21.6402C21.7105 21.5698 21.75 21.4745 21.75 21.375V9.75H2.25V12.375C2.25 12.6734 2.13147 12.9595 1.9205 13.1705C1.70952 13.3815 1.42337 13.5 1.125 13.5C0.826631 13.5 0.540483 13.3815 0.329505 13.1705C0.118526 12.9595 0 12.6734 0 12.375L0 2.625ZM9.75 7.5H21.75V2.625C21.75 2.52554 21.7105 2.43016 21.6402 2.35984C21.5698 2.28951 21.4745 2.25 21.375 2.25H9.75V7.5ZM2.25 7.5H7.5V2.25H2.625C2.52554 2.25 2.43016 2.28951 2.35984 2.35984C2.28951 2.43016 2.25 2.52554 2.25 2.625V7.5Z" fill="#155DFC"/>
<path d="M2.25 20.6059C2.24999 20.1612 2.33788 19.7208 2.50862 19.3102C2.67935 18.8995 2.92956 18.5267 3.24487 18.213C3.56018 17.8994 3.93436 17.6512 4.34591 17.4826C4.75747 17.3141 5.19828 17.2285 5.643 17.2309L6 17.2354V20.1424C6 20.4694 6.39 20.6389 6.63 20.4169L10.9545 16.4014C10.9922 16.3663 11.0223 16.3238 11.0428 16.2766C11.0634 16.2294 11.074 16.1784 11.074 16.1269C11.074 16.0754 11.0634 16.0244 11.0428 15.9772C11.0223 15.93 10.9922 15.8875 10.9545 15.8524L6.63 11.8354C6.57653 11.7858 6.50976 11.7529 6.43786 11.7407C6.36597 11.7284 6.29207 11.7374 6.22521 11.7666C6.15835 11.7957 6.10144 11.8437 6.06144 11.9047C6.02144 11.9657 6.00009 12.037 6 12.1099V14.9854L5.655 14.9839C4.91392 14.9799 4.17936 15.1225 3.49354 15.4033C2.80771 15.6841 2.18414 16.0977 1.65865 16.6202C1.13316 17.1428 0.716106 17.7641 0.431461 18.4483C0.146816 19.1326 0.000187084 19.8663 0 20.6074L0 22.1254C0 22.4238 0.118526 22.7099 0.329505 22.9209C0.540483 23.1319 0.826631 23.2504 1.125 23.2504C1.42337 23.2504 1.70952 23.1319 1.9205 22.9209C2.13147 22.7099 2.25 22.4238 2.25 22.1254V20.6059Z" fill="#155DFC"/>
</svg>
