<svg width="43" height="43" viewBox="0 0 43 43" fill="none" xmlns="http://www.w3.org/2000/svg">
<path d="M17.7083 25.9604V28.8398C17.7016 29.4466 17.5391 30.0414 17.2365 30.5673C16.9338 31.0932 16.5011 31.5325 15.9799 31.8432C14.8734 32.6627 13.9733 33.7291 13.3511 34.9575C12.7289 36.1859 12.4018 37.5424 12.3958 38.9194" stroke="#D08700" stroke-width="3.54167" stroke-linecap="round" stroke-linejoin="round"/>
<path d="M24.7917 25.9604V28.8398C24.7984 29.4466 24.9609 30.0414 25.2635 30.5673C25.5662 31.0932 25.9989 31.5325 26.5201 31.8432C27.6266 32.6627 28.5267 33.7291 29.1489 34.9575C29.7711 36.1859 30.0982 37.5424 30.1042 38.9194" stroke="#D08700" stroke-width="3.54167" stroke-linecap="round" stroke-linejoin="round"/>
<path d="M31.875 15.9377H34.5313C35.7054 15.9377 36.8314 15.4712 37.6617 14.641C38.4919 13.8108 38.9583 12.6847 38.9583 11.5106C38.9583 10.3364 38.4919 9.2104 37.6617 8.38016C36.8314 7.54992 35.7054 7.0835 34.5313 7.0835H31.875" stroke="#D08700" stroke-width="3.54167" stroke-linecap="round" stroke-linejoin="round"/>
<path d="M7.08325 38.9585H35.4166" stroke="#D08700" stroke-width="3.54167" stroke-linecap="round" stroke-linejoin="round"/>
<path d="M10.625 15.9373C10.625 18.7553 11.7444 21.4578 13.737 23.4503C15.7296 25.4429 18.4321 26.5623 21.25 26.5623C24.0679 26.5623 26.7704 25.4429 28.763 23.4503C30.7556 21.4578 31.875 18.7553 31.875 15.9373V5.31234C31.875 4.84268 31.6884 4.39226 31.3563 4.06017C31.0242 3.72807 30.5738 3.5415 30.1042 3.5415H12.3958C11.9262 3.5415 11.4758 3.72807 11.1437 4.06017C10.8116 4.39226 10.625 4.84268 10.625 5.31234V15.9373Z" stroke="#D08700" stroke-width="3.54167" stroke-linecap="round" stroke-linejoin="round"/>
<path d="M10.6251 15.9377H7.96883C6.7947 15.9377 5.66865 15.4712 4.83841 14.641C4.00817 13.8108 3.54175 12.6847 3.54175 11.5106C3.54175 10.3364 4.00817 9.2104 4.83841 8.38016C5.66865 7.54992 6.7947 7.0835 7.96883 7.0835H10.6251" stroke="#D08700" stroke-width="3.54167" stroke-linecap="round" stroke-linejoin="round"/>
</svg>
