<svg width="33" height="33" viewBox="0 0 33 33" fill="none" xmlns="http://www.w3.org/2000/svg">
<path d="M9.29351 20.3472L3.141 9.71887C2.8757 9.2603 2.75093 8.73391 2.78218 8.20505C2.81343 7.67619 2.99932 7.16816 3.31678 6.74403L5.49383 3.85032C5.74573 3.51444 6.07238 3.24183 6.4479 3.05407C6.82342 2.86631 7.2375 2.76855 7.65735 2.76855H23.8838C24.3036 2.76855 24.7177 2.86631 25.0932 3.05407C25.4687 3.24183 25.7954 3.51444 26.0473 3.85032L28.2108 6.74403C28.5304 7.16679 28.7187 7.67413 28.7523 8.20301C28.786 8.73189 28.6635 9.25901 28.4001 9.71887L22.2476 20.3472" stroke="#677EC4" stroke-width="2.7044" stroke-linecap="round" stroke-linejoin="round"/>
<path d="M25.0679 16.2906L17.1169 3.03906" stroke="#677EC4" stroke-width="2.7044" stroke-linecap="round" stroke-linejoin="round"/>
<path d="M6.46155 16.2906L14.4125 3.03906" stroke="#677EC4" stroke-width="2.7044" stroke-linecap="round" stroke-linejoin="round"/>
<path d="M10.3558 9.5293H21.1734" stroke="#677EC4" stroke-width="2.7044" stroke-linecap="round" stroke-linejoin="round"/>
<path d="M15.7648 29.8125C19.4988 29.8125 22.5258 26.7855 22.5258 23.0515C22.5258 19.3175 19.4988 16.2905 15.7648 16.2905C12.0308 16.2905 9.00378 19.3175 9.00378 23.0515C9.00378 26.7855 12.0308 29.8125 15.7648 29.8125Z" stroke="#677EC4" stroke-width="2.7044" stroke-linecap="round" stroke-linejoin="round"/>
<path d="M16.4409 24.4036V21.6992H15.7648" stroke="#677EC4" stroke-width="2.7044" stroke-linecap="round" stroke-linejoin="round"/>
</svg>
