<svg width="20" height="20" viewBox="0 0 20 20" fill="none" xmlns="http://www.w3.org/2000/svg">
<g clip-path="url(#clip0_2018_476)">
<path d="M1.7169 10.2818C1.64751 10.0949 1.64751 9.88924 1.7169 9.7023C2.39276 8.06353 3.53999 6.66235 5.01315 5.67638C6.48631 4.69041 8.21906 4.16406 9.99172 4.16406C11.7644 4.16406 13.4971 4.69041 14.9703 5.67638C16.4434 6.66235 17.5907 8.06353 18.2665 9.7023C18.3359 9.88924 18.3359 10.0949 18.2665 10.2818C17.5907 11.9206 16.4434 13.3218 14.9703 14.3077C13.4971 15.2937 11.7644 15.8201 9.99172 15.8201C8.21906 15.8201 6.48631 15.2937 5.01315 14.3077C3.53999 13.3218 2.39276 11.9206 1.7169 10.2818Z" stroke="#99A1AF" stroke-width="1.66529" stroke-linecap="round" stroke-linejoin="round"/>
<path d="M9.99171 12.49C11.3713 12.49 12.4896 11.3716 12.4896 9.99207C12.4896 8.6125 11.3713 7.49414 9.99171 7.49414C8.61214 7.49414 7.49377 8.6125 7.49377 9.99207C7.49377 11.3716 8.61214 12.49 9.99171 12.49Z" stroke="#99A1AF" stroke-width="1.66529" stroke-linecap="round" stroke-linejoin="round"/>
</g>
<defs>
<clipPath id="clip0_2018_476">
<rect width="19.9835" height="19.9835" fill="white"/>
</clipPath>
</defs>
</svg>
