<svg width="27" height="27" viewBox="0 0 27 27" fill="none" xmlns="http://www.w3.org/2000/svg">
<path d="M16.494 23.0916V14.2949C16.494 14.0033 16.3782 13.7236 16.172 13.5174C15.9658 13.3112 15.6861 13.1953 15.3944 13.1953H10.9961C10.7044 13.1953 10.4248 13.3112 10.2185 13.5174C10.0123 13.7236 9.89648 14.0033 9.89648 14.2949V23.0916" stroke="#6A7282" stroke-width="2.19918" stroke-linecap="round" stroke-linejoin="round"/>
<path d="M3.29883 10.996C3.29875 10.6761 3.36847 10.36 3.50312 10.0698C3.63777 9.77963 3.83411 9.52231 4.07844 9.31581L11.7756 2.71826C12.1725 2.38279 12.6754 2.19873 13.1952 2.19873C13.7149 2.19873 14.2178 2.38279 14.6147 2.71826L22.3119 9.31581C22.5562 9.52231 22.7525 9.77963 22.8872 10.0698C23.0218 10.36 23.0915 10.6761 23.0915 10.996V20.8923C23.0915 21.4756 22.8598 22.0349 22.4473 22.4474C22.0349 22.8598 21.4755 23.0915 20.8923 23.0915H5.49801C4.91475 23.0915 4.35538 22.8598 3.94295 22.4474C3.53053 22.0349 3.29883 21.4756 3.29883 20.8923V10.996Z" stroke="#6A7282" stroke-width="2.19918" stroke-linecap="round" stroke-linejoin="round"/>
</svg>
