<svg width="18" height="14" viewBox="0 0 18 14" fill="none" xmlns="http://www.w3.org/2000/svg">
<path d="M14.73 7.462C14.8727 7.462 14.992 7.414 15.088 7.318C15.184 7.222 15.2317 7.10333 15.231 6.962C15.2303 6.82067 15.1823 6.70167 15.087 6.605C14.9917 6.50833 14.873 6.46067 14.731 6.462H11.654C11.512 6.462 11.393 6.50967 11.297 6.605C11.2017 6.70033 11.154 6.81933 11.154 6.962C11.154 7.10467 11.2017 7.22333 11.297 7.318C11.3923 7.41267 11.5113 7.46067 11.654 7.462H14.73ZM14.73 4.692C14.8727 4.692 14.992 4.64433 15.088 4.549C15.184 4.45367 15.2317 4.33467 15.231 4.192C15.2303 4.04933 15.1823 3.93067 15.087 3.836C14.9917 3.74133 14.873 3.69333 14.731 3.692H11.654C11.512 3.692 11.393 3.73967 11.297 3.835C11.2017 3.931 11.154 4.05 11.154 4.192C11.154 4.334 11.2017 4.453 11.297 4.549C11.3923 4.645 11.5113 4.69267 11.654 4.692H14.73ZM6.077 8.308C5.52833 8.308 5.06367 8.346 4.683 8.422C4.30167 8.498 3.96 8.62067 3.658 8.79C3.398 8.93 3.20167 9.083 3.069 9.249C2.93633 9.415 2.87033 9.59233 2.871 9.781C2.871 9.92967 2.93 10.0547 3.048 10.156C3.166 10.2573 3.314 10.308 3.492 10.308H8.662C8.84 10.308 8.988 10.253 9.106 10.143C9.224 10.033 9.283 9.902 9.283 9.75C9.283 9.582 9.22 9.419 9.094 9.261C8.968 9.103 8.76867 8.94633 8.496 8.791C8.19333 8.621 7.85167 8.498 7.471 8.422C7.09033 8.346 6.62567 8.308 6.077 8.308ZM6.077 6.692C6.499 6.692 6.85433 6.54767 7.143 6.259C7.43233 5.96967 7.577 5.614 7.577 5.192C7.577 4.77 7.43233 4.41467 7.143 4.126C6.85367 3.83733 6.49833 3.69267 6.077 3.692C5.65567 3.69133 5.30033 3.836 5.011 4.126C4.72167 4.416 4.577 4.77133 4.577 5.192C4.577 5.61267 4.72167 5.96833 5.011 6.259C5.30033 6.54967 5.65567 6.694 6.077 6.692ZM1.616 14C1.15533 14 0.771 13.846 0.463 13.538C0.155 13.23 0.000666667 12.8453 0 12.384V1.616C0 1.15533 0.154333 0.771 0.463 0.463C0.771667 0.155 1.15567 0.000666667 1.615 0H16.385C16.845 0 17.229 0.154333 17.537 0.463C17.845 0.771667 17.9993 1.156 18 1.616V12.385C18 12.845 17.8457 13.2293 17.537 13.538C17.2283 13.8467 16.8443 14.0007 16.385 14H1.616ZM1.616 13H16.385C16.5383 13 16.6793 12.936 16.808 12.808C16.9367 12.68 17.0007 12.5387 17 12.384V1.616C17 1.462 16.936 1.32067 16.808 1.192C16.68 1.06333 16.539 0.999333 16.385 1H1.615C1.46167 1 1.32067 1.064 1.192 1.192C1.06333 1.32 0.999333 1.46133 1 1.616V12.385C1 12.5383 1.064 12.6793 1.192 12.808C1.32 12.9367 1.461 13.0007 1.615 13" fill="#99A1AF"/>
</svg>
