<svg width="24" height="24" viewBox="0 0 24 24" fill="none" xmlns="http://www.w3.org/2000/svg">
<path d="M10.2642 20.9922C10.4396 21.2961 10.692 21.5484 10.9959 21.7239C11.2998 21.8994 11.6446 21.9917 11.9955 21.9917C12.3464 21.9917 12.6912 21.8994 12.9951 21.7239C13.299 21.5484 13.5514 21.2961 13.7269 20.9922" stroke="#155DFC" stroke-width="1.99926" stroke-linecap="round" stroke-linejoin="round"/>
<path d="M3.26068 15.3201C3.1301 15.4632 3.04392 15.6412 3.01263 15.8324C2.98134 16.0236 3.0063 16.2198 3.08446 16.3971C3.16261 16.5744 3.29061 16.7251 3.45287 16.831C3.61513 16.9369 3.80466 16.9933 3.99841 16.9934H19.9925C20.1862 16.9935 20.3758 16.9373 20.5381 16.8316C20.7005 16.7259 20.8286 16.5754 20.907 16.3982C20.9854 16.221 21.0106 16.0249 20.9795 15.8337C20.9485 15.6424 20.8626 15.4644 20.7322 15.3211C19.4027 13.9506 17.9932 12.4941 17.9932 7.99679C17.9932 6.40609 17.3613 4.88053 16.2365 3.75573C15.1117 2.63093 13.5861 1.99902 11.9954 1.99902C10.4047 1.99902 8.87917 2.63093 7.75437 3.75573C6.62957 4.88053 5.99767 6.40609 5.99767 7.99679C5.99767 12.4941 4.58719 13.9506 3.26068 15.3201Z" stroke="#155DFC" stroke-width="1.99926" stroke-linecap="round" stroke-linejoin="round"/>
</svg>
