<svg width="32" height="32" viewBox="0 0 32 32" fill="none" xmlns="http://www.w3.org/2000/svg">
<path d="M5.33329 5.33317H10.68V2.6665H2.66663V10.6665H5.33329V5.33317ZM5.33329 21.3332H2.66663V29.3332H10.68V26.6665H5.33329V21.3332ZM26.6666 26.6665H21.3333V29.3332H29.3333V21.3332H26.6666V26.6665ZM21.3333 5.33317H26.6666V10.6665H29.3333V2.6665H21.3333V5.33317Z" fill="white"/>
<path d="M6.66663 14.6665H14.6666V6.6665H6.66663V14.6665ZM9.33329 9.33317H12V11.9998H9.33329V9.33317ZM6.66663 25.3332H14.6666V17.3332H6.66663V25.3332ZM9.33329 19.9998H12V22.6665H9.33329V19.9998ZM25.3333 6.6665H17.3333V14.6665H25.3333V6.6665ZM22.6666 11.9998H20V9.33317H22.6666V11.9998ZM17.3466 17.3332H20.0133V19.9998H17.3466V17.3332ZM20.0133 19.9998H22.68V22.6665H20.0133V19.9998ZM22.68 22.6665H25.3466V25.3332H22.68V22.6665ZM22.68 17.3332H25.3466V19.9998H22.68V17.3332Z" fill="white"/>
</svg>
