<svg width="24" height="24" viewBox="0 0 24 24" fill="none" xmlns="http://www.w3.org/2000/svg">
<path d="M8.76307 10.6595C8.81952 10.6592 8.87597 10.6589 8.93412 10.6585C8.99677 10.6584 9.05942 10.6583 9.12207 10.6581C9.18798 10.6578 9.2539 10.6575 9.31981 10.6572C9.53639 10.6562 9.75296 10.6557 9.96954 10.6553C10.0442 10.6551 10.1188 10.6549 10.1934 10.6547C10.544 10.6538 10.8947 10.6531 11.2453 10.6527C11.6497 10.6523 12.0541 10.651 12.4585 10.6491C12.7713 10.6477 13.0841 10.647 13.3969 10.6469C13.5836 10.6468 13.7703 10.6464 13.957 10.6452C14.1328 10.6441 14.3086 10.6439 14.4844 10.6444C14.5792 10.6444 14.6741 10.6435 14.769 10.6426C15.1465 10.6447 15.43 10.672 15.7123 10.946C15.7332 10.9765 15.7541 11.0071 15.7756 11.0385C15.8081 11.0841 15.8081 11.0841 15.8412 11.1306C15.9563 11.3274 16.0042 11.4898 16.0031 11.718C16.0031 11.7677 16.0031 11.8174 16.003 11.8686C16.0026 11.9218 16.0021 11.9749 16.0016 12.0296C16.0014 12.1119 16.0014 12.1119 16.0012 12.1957C16.0007 12.3705 15.9995 12.5453 15.9983 12.7201C15.9978 12.8388 15.9974 12.9574 15.997 13.076C15.996 13.3666 15.9944 13.6571 15.9924 13.9477C16.0409 13.9473 16.0894 13.9468 16.1394 13.9464C16.5973 13.9426 17.0552 13.9398 17.5132 13.938C17.7486 13.937 17.984 13.9357 18.2194 13.9335C18.4467 13.9315 18.674 13.9304 18.9014 13.9299C18.9879 13.9295 19.0745 13.9289 19.1611 13.9279C19.2827 13.9265 19.4043 13.9263 19.5259 13.9264C19.5614 13.9257 19.5968 13.925 19.6334 13.9243C19.9323 13.9266 20.1831 14.0169 20.3998 14.2273C20.4207 14.2578 20.4416 14.2883 20.4631 14.3197C20.4848 14.3501 20.5064 14.3805 20.5287 14.4118C20.6538 14.6259 20.6916 14.797 20.6912 15.045C20.6914 15.136 20.6914 15.136 20.6916 15.2289C20.6913 15.2957 20.6909 15.3626 20.6906 15.4295C20.6905 15.5002 20.6906 15.5709 20.6906 15.6416C20.6906 15.8332 20.6901 16.0249 20.6894 16.2165C20.6888 16.4169 20.6888 16.6173 20.6887 16.8177C20.6884 17.197 20.6876 17.5763 20.6867 17.9557C20.6856 18.3876 20.6851 18.8195 20.6846 19.2514C20.6837 20.1397 20.682 21.0281 20.6799 21.9164C20.7367 21.916 20.7367 21.916 20.7947 21.9155C21.1512 21.9127 21.5078 21.9105 21.8644 21.9091C22.0478 21.9084 22.2311 21.9074 22.4144 21.9058C22.5913 21.9043 22.7682 21.9035 22.9451 21.9031C23.0126 21.9028 23.0801 21.9023 23.1477 21.9016C23.2422 21.9005 23.3367 21.9005 23.4311 21.9005C23.485 21.9002 23.5388 21.8998 23.5942 21.8995C23.7268 21.9164 23.7268 21.9164 23.8144 21.9801C23.94 22.1624 23.8892 22.4392 23.8879 22.6518C23.8889 22.7061 23.8898 22.7605 23.8908 22.8165C23.8906 23.1916 23.846 23.4583 23.5981 23.7457C23.5719 23.7666 23.5458 23.7875 23.5188 23.809C23.4928 23.8306 23.4667 23.8523 23.4399 23.8746C23.2129 24.0227 23.0036 24.0393 22.7382 24.0379C22.7001 24.038 22.662 24.0382 22.6227 24.0384C22.4943 24.0388 22.3659 24.0386 22.2376 24.0383C22.1448 24.0385 22.0521 24.0387 21.9594 24.039C21.7041 24.0396 21.4488 24.0395 21.1935 24.0394C20.9184 24.0394 20.6432 24.0399 20.368 24.0404C19.8288 24.0412 19.2896 24.0414 18.7503 24.0415C18.3121 24.0415 17.8739 24.0417 17.4357 24.042C17.3096 24.0421 17.1835 24.0422 17.0574 24.0422C17.026 24.0423 16.9947 24.0423 16.9624 24.0423C16.0805 24.0429 15.1986 24.0433 14.3167 24.0432C14.2834 24.0432 14.2502 24.0432 14.2159 24.0432C14.0474 24.0432 13.8788 24.0432 13.7103 24.0432C13.6768 24.0432 13.6433 24.0432 13.6088 24.0432C13.5411 24.0432 13.4734 24.0432 13.4057 24.0432C12.3525 24.0431 11.2992 24.0438 10.2459 24.0451C9.06273 24.0465 7.87957 24.0473 6.69642 24.0473C6.57027 24.0473 6.44412 24.0472 6.31798 24.0472C6.28691 24.0472 6.25585 24.0472 6.22385 24.0472C5.75484 24.0472 5.28583 24.0477 4.81682 24.0485C4.28341 24.0493 3.75001 24.0496 3.2166 24.0489C2.94437 24.0486 2.67215 24.0486 2.39992 24.0494C2.15076 24.0501 1.90162 24.05 1.65247 24.0492C1.56228 24.0491 1.4721 24.0492 1.38191 24.0497C1.25936 24.0504 1.13686 24.0499 1.01431 24.0491C0.961738 24.0498 0.961738 24.0498 0.908108 24.0505C0.612671 24.0466 0.370312 23.9509 0.147579 23.7548C0.126672 23.7282 0.105765 23.7016 0.0842247 23.6742C0.0625926 23.6477 0.0409605 23.6211 0.0186729 23.5937C-0.179497 23.3059 -0.148105 23.0275 -0.147221 22.6869C-0.147976 22.6286 -0.148731 22.5703 -0.149509 22.5101C-0.14954 22.4543 -0.14957 22.3985 -0.149601 22.341C-0.149741 22.29 -0.14988 22.2389 -0.150024 22.1862C-0.132572 22.0571 -0.132572 22.0571 -0.0796475 21.9797C0.0484408 21.8873 0.146901 21.8996 0.303711 21.9005C0.364701 21.9005 0.425691 21.9005 0.488529 21.9005C0.555116 21.9012 0.621703 21.9019 0.68829 21.9027C0.7564 21.903 0.824511 21.9032 0.892622 21.9033C1.0718 21.9038 1.25096 21.9052 1.43012 21.9068C1.61299 21.9082 1.79586 21.9089 1.97873 21.9096C2.33747 21.9111 2.6962 21.9135 3.05493 21.9164C3.05471 21.8799 3.0545 21.8434 3.05427 21.8057C3.04909 20.9156 3.04522 20.0255 3.04278 19.1354C3.04158 18.705 3.03993 18.2745 3.03725 17.8441C3.03491 17.4688 3.0334 17.0934 3.03288 16.7181C3.03257 16.5195 3.03186 16.3209 3.03015 16.1223C3.02855 15.9351 3.02807 15.7479 3.02842 15.5607C3.02835 15.4922 3.02789 15.4238 3.02699 15.3554C3.0219 14.95 3.0421 14.6109 3.2893 14.2758C3.57459 14.0101 3.79467 13.9406 4.18234 13.9424C4.22077 13.9423 4.25919 13.9423 4.29878 13.9423C4.42585 13.9424 4.55292 13.9427 4.67999 13.9431C4.76807 13.9432 4.85615 13.9433 4.94423 13.9433C5.1761 13.9435 5.40798 13.9439 5.63986 13.9445C5.87645 13.9449 6.11304 13.9452 6.34964 13.9454C6.8139 13.9459 7.27816 13.9467 7.74243 13.9477C7.74165 13.9026 7.74165 13.9026 7.74085 13.8565C7.73564 13.5417 7.73212 13.2269 7.72955 12.912C7.72838 12.7947 7.72678 12.6774 7.72475 12.5601C7.72188 12.3909 7.72057 12.2218 7.71954 12.0525C7.71833 12.0006 7.71712 11.9487 7.71587 11.8952C7.71575 11.5493 7.77466 11.2806 7.9768 10.9946C8.2241 10.7631 8.42114 10.6609 8.76307 10.6595ZM8.5393 11.5102C8.38541 11.818 8.49243 12.1973 8.49243 12.5414C10.7199 12.5414 12.9474 12.5414 15.2424 12.5414C15.2424 12.2321 15.2424 11.9227 15.2424 11.6039C15.0303 11.3918 14.9506 11.3639 14.6679 11.363C14.5914 11.3626 14.5914 11.3626 14.5132 11.3622C14.4572 11.3621 14.4011 11.3621 14.3434 11.362C14.2844 11.3618 14.2254 11.3615 14.1646 11.3613C14.0027 11.3607 13.8407 11.3604 13.6788 11.3602C13.5776 11.36 13.4764 11.3598 13.3752 11.3596C13.0584 11.359 12.7417 11.3585 12.4249 11.3584C12.0594 11.3581 11.694 11.3573 11.3285 11.356C11.0459 11.3549 10.7633 11.3545 10.4807 11.3544C10.312 11.3544 10.1433 11.3541 9.97453 11.3533C9.78623 11.3523 9.59794 11.3525 9.40964 11.3528C9.35389 11.3524 9.29814 11.352 9.2407 11.3515C8.86994 11.3521 8.86994 11.3521 8.5393 11.5102ZM8.49243 13.2446C8.49243 16.1063 8.49243 18.968 8.49243 21.9164C10.7199 21.9164 12.9474 21.9164 15.2424 21.9164C15.2424 19.0547 15.2424 16.193 15.2424 13.2446C13.0149 13.2446 10.7874 13.2446 8.49243 13.2446ZM3.8518 14.7914C3.69791 15.0992 3.80493 15.4786 3.80493 15.8227C5.1043 15.8227 6.40368 15.8227 7.74243 15.8227C7.74243 15.436 7.74243 15.0492 7.74243 14.6508C7.27668 14.6476 6.81094 14.645 6.34519 14.6435C6.12891 14.6428 5.91264 14.6418 5.69636 14.6402C5.48756 14.6387 5.27876 14.6378 5.06996 14.6375C4.99038 14.6372 4.9108 14.6367 4.83123 14.6359C4.71958 14.6349 4.60796 14.6348 4.49631 14.6348C4.46357 14.6343 4.43083 14.6338 4.3971 14.6333C4.1818 14.6347 4.03451 14.6778 3.8518 14.7914ZM15.9924 14.6508C15.9924 15.0375 15.9924 15.4242 15.9924 15.8227C17.2918 15.8227 18.5912 15.8227 19.9299 15.8227C19.9299 15.5133 19.9299 15.2039 19.9299 14.8852C19.7178 14.6731 19.6417 14.6456 19.3553 14.645C19.3054 14.6452 19.3054 14.6452 19.2545 14.6455C19.2193 14.6455 19.1841 14.6455 19.1478 14.6455C19.0313 14.6455 18.9149 14.6459 18.7985 14.6462C18.7178 14.6463 18.6371 14.6464 18.5564 14.6464C18.3439 14.6466 18.1314 14.6471 17.919 14.6476C17.7022 14.6481 17.4854 14.6483 17.2686 14.6485C16.8432 14.649 16.4178 14.6498 15.9924 14.6508ZM3.80493 16.5258C3.80493 18.3047 3.80493 20.0836 3.80493 21.9164C5.1043 21.9164 6.40368 21.9164 7.74243 21.9164C7.74243 20.1375 7.74243 18.3586 7.74243 16.5258C6.44305 16.5258 5.14368 16.5258 3.80493 16.5258ZM15.9924 16.5258C15.9924 18.3047 15.9924 20.0836 15.9924 21.9164C17.2918 21.9164 18.5912 21.9164 19.9299 21.9164C19.9299 20.1375 19.9299 18.3586 19.9299 16.5258C18.6306 16.5258 17.3312 16.5258 15.9924 16.5258ZM0.570553 22.6196C0.563599 22.9256 0.563599 22.9256 0.664303 23.1821C0.823774 23.3415 0.984723 23.3281 1.20461 23.329C1.2391 23.3289 1.27358 23.3288 1.30911 23.3287C1.36465 23.3288 1.36465 23.3288 1.42131 23.329C1.54614 23.3292 1.67097 23.3291 1.7958 23.3289C1.88589 23.329 1.97599 23.3291 2.06608 23.3293C2.31426 23.3296 2.56244 23.3295 2.81062 23.3295C3.07803 23.3295 3.34545 23.3297 3.61287 23.33C4.13699 23.3304 4.66111 23.3305 5.18524 23.3305C5.6111 23.3305 6.03696 23.3306 6.46282 23.3308C7.47289 23.3311 8.48295 23.3314 9.49302 23.3314C9.54149 23.3314 9.54149 23.3314 9.59094 23.3314C9.75471 23.3314 9.91849 23.3314 10.0823 23.3314C10.1148 23.3314 10.1473 23.3314 10.1808 23.3314C10.2466 23.3314 10.3124 23.3314 10.3782 23.3314C11.4019 23.3313 12.4256 23.3317 13.4493 23.3323C14.5989 23.333 15.7485 23.3334 16.8982 23.3334C17.5071 23.3334 18.116 23.3335 18.7249 23.334C19.2432 23.3344 19.7615 23.3346 20.2799 23.3342C20.5445 23.3341 20.8091 23.3341 21.0737 23.3345C21.3158 23.3349 21.5578 23.3348 21.7998 23.3344C21.8876 23.3343 21.9753 23.3344 22.0631 23.3347C22.182 23.335 22.3009 23.3347 22.4198 23.3343C22.4714 23.3347 22.4714 23.3347 22.524 23.335C22.766 23.3334 22.9431 23.3095 23.1174 23.1352C23.1834 22.9572 23.1643 22.822 23.1643 22.6196C15.7084 22.6196 8.25243 22.6196 0.570553 22.6196Z" fill="#9810FA"/>
<path d="M8.15697 1.89402C8.18978 1.89385 8.22259 1.89368 8.2564 1.8935C8.36662 1.89298 8.47683 1.8928 8.58705 1.89262C8.66597 1.89233 8.74489 1.89202 8.82381 1.89169C9.08323 1.8907 9.34264 1.89022 9.60205 1.88975C9.69136 1.88956 9.78066 1.88937 9.86996 1.88917C10.2895 1.88828 10.7091 1.88761 11.1286 1.88722C11.6129 1.88676 12.0972 1.88553 12.5815 1.88363C12.9558 1.88222 13.3301 1.88153 13.7045 1.88137C13.928 1.88126 14.1516 1.88084 14.3751 1.87966C14.5855 1.87857 14.7959 1.87837 15.0063 1.87885C15.0834 1.87888 15.1605 1.87858 15.2376 1.87794C15.3431 1.87711 15.4486 1.87744 15.5541 1.87806C15.6131 1.87794 15.672 1.87783 15.7328 1.87772C15.998 1.91481 16.1715 2.01717 16.3381 2.23197C16.494 2.51366 16.4732 2.78055 16.475 3.09597C16.4756 3.16001 16.4765 3.22406 16.4779 3.28809C16.4891 3.80169 16.4431 4.25469 16.0769 4.64202C15.6866 4.972 15.2926 4.97594 14.8045 4.95237C14.527 4.94713 14.527 4.94713 14.2974 5.08543C14.2104 5.19568 14.2104 5.19568 14.1403 5.31033C13.9369 5.62001 13.5729 5.7857 13.2268 5.88529C13.0196 5.91124 12.8148 5.91272 12.6061 5.91184C12.5477 5.91214 12.4894 5.91243 12.4293 5.91272C12.3064 5.91306 12.1836 5.91291 12.0608 5.91231C11.8742 5.91166 11.6876 5.91326 11.501 5.91505C11.3811 5.91509 11.2612 5.91501 11.1412 5.91477C11.0861 5.9154 11.031 5.91602 10.9743 5.91666C10.4315 5.91063 10.0137 5.74537 9.6145 5.37718C9.52368 5.27592 9.52368 5.27592 9.45227 5.12504C9.35194 4.9862 9.35194 4.9862 9.22353 4.97159C9.07887 4.96475 8.93604 4.96489 8.79126 4.9683C8.35217 4.97726 8.0042 4.93473 7.65802 4.64205C7.2715 4.23323 7.2439 3.74548 7.25024 3.20756C7.24952 3.14575 7.24879 3.08393 7.24805 3.02024C7.24944 2.67292 7.26801 2.42771 7.46118 2.13529C7.68625 1.9212 7.85288 1.89506 8.15697 1.89402ZM8.02368 2.65092C8.0182 2.83157 8.01489 3.0122 8.01196 3.19291C8.01039 3.24382 8.00882 3.29473 8.0072 3.34718C8.00343 3.65745 8.01858 3.85543 8.21118 4.10404C8.49904 4.29758 8.80585 4.24467 9.14868 4.24467C9.14868 3.70326 9.14868 3.16186 9.14868 2.60404C8.89635 2.60259 8.89635 2.60259 8.63892 2.60111C8.58593 2.60069 8.53295 2.60026 8.47836 2.59982C8.43672 2.5997 8.39507 2.59959 8.35217 2.59947C8.30946 2.59922 8.26675 2.59898 8.22274 2.59872C8.1157 2.59707 8.1157 2.59707 8.02368 2.65092ZM14.5862 2.60404C14.5862 3.14545 14.5862 3.68686 14.5862 4.24467C15.0823 4.27122 15.0823 4.27122 15.5237 4.10404C15.7397 3.8204 15.737 3.57023 15.7288 3.22221C15.7287 3.17305 15.7286 3.1239 15.7286 3.07325C15.7424 2.81266 15.7424 2.81266 15.6174 2.60404C15.5083 2.59103 15.5083 2.59103 15.3827 2.59489C15.3411 2.59512 15.2994 2.59536 15.2565 2.5956C15.177 2.59688 15.177 2.59688 15.0959 2.59819C14.8436 2.60109 14.8436 2.60109 14.5862 2.60404Z" fill="#F0B100"/>
<path d="M10.8771 6.58206C10.9257 6.58191 10.9744 6.58176 11.0245 6.58161C11.1039 6.58175 11.1039 6.58175 11.1849 6.5819C11.2657 6.58183 11.2657 6.58183 11.3483 6.58176C11.4625 6.58173 11.5768 6.58181 11.6911 6.58201C11.8667 6.58226 12.0423 6.58201 12.2179 6.58171C12.3287 6.58174 12.4394 6.5818 12.5501 6.5819C12.603 6.5818 12.656 6.58171 12.7105 6.58161C12.7835 6.58183 12.7835 6.58183 12.8579 6.58206C12.901 6.58209 12.944 6.58213 12.9884 6.58217C13.0862 6.58812 13.0862 6.58812 13.1331 6.635C13.154 6.75394 13.1723 6.87232 13.189 6.99187C13.1941 7.02777 13.1992 7.06368 13.2045 7.10067C13.2154 7.17683 13.2261 7.253 13.2368 7.32918C13.2531 7.44557 13.2697 7.56191 13.2865 7.67824C13.2969 7.75218 13.3074 7.82612 13.3179 7.90007C13.3228 7.93484 13.3278 7.96962 13.3329 8.00544C13.3545 8.16041 13.3675 8.30623 13.3675 8.46312C13.3977 8.46214 13.428 8.46116 13.4592 8.46015C13.5966 8.45624 13.734 8.45381 13.8714 8.4514C13.919 8.44983 13.9666 8.44826 14.0157 8.44664C14.3679 8.44201 14.3679 8.44201 14.524 8.549C14.61 8.68944 14.6127 8.7698 14.5862 8.93187C14.5212 9.05618 14.5212 9.05618 14.3987 9.16625C14.2381 9.2018 14.0796 9.19777 13.9157 9.19583C13.8666 9.19616 13.8175 9.1965 13.7669 9.19685C13.6044 9.19764 13.442 9.19673 13.2796 9.19573C13.1668 9.19577 13.054 9.19588 12.9412 9.19607C12.7048 9.1962 12.4684 9.19551 12.2319 9.19423C11.9287 9.19263 11.6254 9.19291 11.3221 9.19379C11.0892 9.19428 10.8563 9.19387 10.6234 9.19316C10.5116 9.19292 10.3997 9.19294 10.2879 9.19323C10.1317 9.19349 9.97548 9.19254 9.81926 9.19125C9.77289 9.19156 9.72652 9.19186 9.67875 9.19218C9.36729 9.18782 9.36729 9.18782 9.21375 9.08119C9.11762 8.92974 9.12368 8.82597 9.14873 8.65062C9.21098 8.54735 9.21098 8.54735 9.33623 8.46312C9.51249 8.43979 9.68618 8.44555 9.86357 8.4514C9.91191 8.45225 9.96025 8.45309 10.0101 8.45397C10.1292 8.45617 10.2483 8.45925 10.3675 8.46312C10.3752 8.38889 10.3752 8.38889 10.383 8.31316C10.4269 7.90027 10.4768 7.48857 10.5345 7.07738C10.5404 7.03416 10.5464 6.99095 10.5525 6.94642C10.5582 6.90643 10.5639 6.86644 10.5698 6.82524C10.5749 6.78962 10.5799 6.75399 10.5851 6.71729C10.6198 6.54683 10.723 6.58219 10.8771 6.58206Z" fill="#F0B100"/>
<path d="M9.54966 0.00189497C9.61353 0.00110189 9.61353 0.00110189 9.6787 0.000292798C9.72507 0.000672341 9.77144 0.00105188 9.81921 0.00144293C9.86832 0.00111437 9.91742 0.000785809 9.96801 0.000447293C10.1305 -0.000378513 10.2929 0.000168695 10.4553 0.00080206C10.5681 0.000675787 10.6809 0.000493841 10.7937 0.000258465C11.0301 -1.81027e-05 11.2665 0.000384317 11.503 0.00125982C11.8062 0.00232808 12.1095 0.00171306 12.4128 0.000589987C12.6457 -8.70671e-05 12.8786 0.000127874 13.1115 0.000613948C13.2234 0.000739159 13.3352 0.000585065 13.447 0.000149031C13.6033 -0.000326367 13.7594 0.000397641 13.9156 0.00144293C13.9852 0.000873614 13.9852 0.000873614 14.0562 0.000292798C14.0987 0.000821515 14.1413 0.00135023 14.1852 0.00189497C14.2221 0.00196566 14.259 0.00203635 14.2971 0.00210919C14.3987 0.0257044 14.3987 0.0257044 14.5862 0.213204C14.5862 0.538048 14.5862 0.862892 14.5862 1.19758C12.7918 1.19758 10.9974 1.19758 9.14868 1.19758C9.14868 0.00266281 9.14868 0.00266282 9.54966 0.00189497Z" fill="#F0B100"/>
<path d="M12.0549 15.3536C12.1929 15.4832 12.2387 15.561 12.265 15.7497C12.2655 15.8122 12.265 15.8748 12.2637 15.9374C12.2637 15.9717 12.2638 16.006 12.2638 16.0414C12.2637 16.1542 12.2622 16.2671 12.2607 16.38C12.2604 16.4584 12.2601 16.5369 12.2599 16.6154C12.2592 16.8216 12.2574 17.0277 12.2553 17.2338C12.2534 17.4443 12.2525 17.6549 12.2516 17.8654C12.2496 18.2782 12.2464 18.6909 12.2424 19.1036C12.2882 19.102 12.3339 19.1004 12.381 19.0987C12.4407 19.0974 12.5003 19.0962 12.5618 19.0949C12.621 19.0932 12.6803 19.0916 12.7414 19.0899C12.8987 19.1036 12.8987 19.1036 12.9889 19.1682C13.0552 19.2683 13.0581 19.3357 13.0569 19.4552C13.0574 19.5096 13.0574 19.5096 13.058 19.5651C13.0345 19.692 12.9988 19.7271 12.8987 19.8068C12.8044 19.8246 12.8044 19.8246 12.6956 19.825C12.6548 19.8254 12.614 19.8259 12.5719 19.8263C12.5279 19.826 12.484 19.8257 12.4387 19.8254C12.3935 19.8256 12.3482 19.8257 12.3016 19.8259C12.2059 19.826 12.1103 19.8257 12.0146 19.8251C11.868 19.8244 11.7214 19.8251 11.5748 19.826C11.4819 19.8259 11.389 19.8257 11.2961 19.8254C11.2522 19.8257 11.2082 19.826 11.163 19.8263C11.1221 19.8259 11.0813 19.8254 11.0392 19.825C11.0033 19.8249 10.9674 19.8247 10.9304 19.8246C10.8111 19.802 10.7694 19.7609 10.6956 19.6661C10.6769 19.5651 10.6769 19.5651 10.678 19.4552C10.6776 19.419 10.6773 19.3827 10.6769 19.3453C10.6956 19.2443 10.6956 19.2443 10.8362 19.1036C11.0527 19.1036 11.2693 19.1036 11.4924 19.1036C11.4924 18.2065 11.4924 17.3093 11.4924 16.3849C11.4151 16.4313 11.3377 16.4777 11.2581 16.5255C11.1478 16.5442 11.1478 16.5442 11.0413 16.5431C11.0059 16.5435 10.9704 16.5438 10.934 16.5442C10.8097 16.5205 10.769 16.4873 10.6956 16.3849C10.6736 16.2855 10.6736 16.2855 10.6721 16.1769C10.6699 16.1233 10.6699 16.1233 10.6677 16.0687C10.7285 15.8378 11.0031 15.724 11.1988 15.6091C11.2309 15.5905 11.2631 15.572 11.2961 15.5529C11.3277 15.5336 11.3593 15.5143 11.3918 15.4945C11.6233 15.3611 11.7876 15.3123 12.0549 15.3536Z" fill="#9810FA"/>
</svg>
