<svg width="16" height="16" viewBox="0 0 16 16" fill="none" xmlns="http://www.w3.org/2000/svg">
<path d="M10.1333 1.59961C10.485 1.60462 10.8205 1.74839 11.0667 1.99961L13.6 4.53294C13.8512 4.77912 13.995 5.11458 14 5.46628V12.2663C14 12.6199 13.8595 12.959 13.6095 13.2091C13.3594 13.4591 13.0203 13.5996 12.6667 13.5996H3.33333C2.97971 13.5996 2.64057 13.4591 2.39052 13.2091C2.14048 12.959 2 12.6199 2 12.2663V2.93294C2 2.57932 2.14048 2.24018 2.39052 1.99013C2.64057 1.74009 2.97971 1.59961 3.33333 1.59961H10.1333Z" stroke="white" stroke-width="1.33333" stroke-linecap="round" stroke-linejoin="round"/>
<path d="M11.3334 13.5999V8.93327C11.3334 8.75646 11.2632 8.58689 11.1382 8.46186C11.0131 8.33684 10.8436 8.2666 10.6667 8.2666H5.33341C5.1566 8.2666 4.98703 8.33684 4.86201 8.46186C4.73699 8.58689 4.66675 8.75646 4.66675 8.93327V13.5999" stroke="white" stroke-width="1.33333" stroke-linecap="round" stroke-linejoin="round"/>
<path d="M6 1.59961V4.26628C6 4.44309 6.07024 4.61266 6.19526 4.73768C6.32029 4.8627 6.48986 4.93294 6.66667 4.93294H11.3333" stroke="white" stroke-width="1.33333" stroke-linecap="round" stroke-linejoin="round"/>
</svg>
