<svg width="24" height="24" viewBox="0 0 24 24" fill="none" xmlns="http://www.w3.org/2000/svg">
<path d="M9.66738 4.13439C9.72245 3.55494 9.99159 3.01685 10.4222 2.62523C10.8528 2.23361 11.414 2.0166 11.996 2.0166C12.5781 2.0166 13.1392 2.23361 13.5698 2.62523C14.0004 3.01685 14.2696 3.55494 14.3246 4.13439C14.3577 4.5087 14.4805 4.86953 14.6826 5.18634C14.8847 5.50314 15.1602 5.76659 15.4857 5.95439C15.8112 6.14219 16.1771 6.2488 16.5525 6.26522C16.9279 6.28163 17.3018 6.20735 17.6424 6.04868C18.1713 5.80854 18.7707 5.7738 19.3238 5.9512C19.8769 6.1286 20.3442 6.50546 20.6348 7.00842C20.9254 7.51139 21.0184 8.10448 20.8958 8.67227C20.7732 9.24006 20.4438 9.74192 19.9715 10.0802C19.664 10.2959 19.413 10.5826 19.2397 10.9159C19.0664 11.2492 18.976 11.6193 18.976 11.995C18.976 12.3706 19.0664 12.7407 19.2397 13.074C19.413 13.4073 19.664 13.694 19.9715 13.9098C20.4438 14.248 20.7732 14.7499 20.8958 15.3177C21.0184 15.8854 20.9254 16.4785 20.6348 16.9815C20.3442 17.4845 19.8769 17.8613 19.3238 18.0387C18.7707 18.2161 18.1713 18.1814 17.6424 17.9413C17.3018 17.7826 16.9279 17.7083 16.5525 17.7247C16.1771 17.7411 15.8112 17.8477 15.4857 18.0355C15.1602 18.2233 14.8847 18.4868 14.6826 18.8036C14.4805 19.1204 14.3577 19.4812 14.3246 19.8555C14.2696 20.435 14.0004 20.9731 13.5698 21.3647C13.1392 21.7563 12.5781 21.9733 11.996 21.9733C11.414 21.9733 10.8528 21.7563 10.4222 21.3647C9.99159 20.9731 9.72245 20.435 9.66738 19.8555C9.63433 19.4811 9.51153 19.1201 9.30938 18.8032C9.10722 18.4863 8.83166 18.2228 8.50604 18.0349C8.18042 17.8471 7.81433 17.7405 7.43878 17.7242C7.06323 17.7079 6.68929 17.7824 6.34861 17.9413C5.8197 18.1814 5.22036 18.2161 4.66724 18.0387C4.11412 17.8613 3.64679 17.4845 3.35621 16.9815C3.06563 16.4785 2.97258 15.8854 3.09518 15.3177C3.21778 14.7499 3.54725 14.248 4.01948 13.9098C4.32698 13.694 4.578 13.4073 4.75129 13.074C4.92459 12.7407 5.01506 12.3706 5.01506 11.995C5.01506 11.6193 4.92459 11.2492 4.75129 10.9159C4.578 10.5826 4.32698 10.2959 4.01948 10.0802C3.54792 9.74175 3.21902 9.24008 3.09672 8.67268C2.97442 8.10528 3.06744 7.51267 3.35771 7.01003C3.64797 6.50739 4.11475 6.13062 4.66733 5.95295C5.2199 5.77528 5.81879 5.8094 6.34761 6.04868C6.68824 6.20735 7.06209 6.28163 7.43751 6.26522C7.81292 6.2488 8.17886 6.14219 8.50435 5.95439C8.82983 5.76659 9.10528 5.50314 9.30738 5.18634C9.50947 4.86953 9.63227 4.5087 9.66538 4.13439" stroke="#155DFC" stroke-width="1.99926" stroke-linecap="round" stroke-linejoin="round"/>
<path d="M11.9955 14.9944C13.6517 14.9944 14.9944 13.6517 14.9944 11.9955C14.9944 10.3392 13.6517 8.99658 11.9955 8.99658C10.3392 8.99658 8.99658 10.3392 8.99658 11.9955C8.99658 13.6517 10.3392 14.9944 11.9955 14.9944Z" stroke="#155DFC" stroke-width="1.99926" stroke-linecap="round" stroke-linejoin="round"/>
</svg>
