<svg width="28" height="28" viewBox="0 0 28 28" fill="none" xmlns="http://www.w3.org/2000/svg">
<path d="M13.4478 2.67754C13.499 2.57424 13.578 2.48729 13.6759 2.4265C13.7738 2.36571 13.8868 2.3335 14.002 2.3335C14.1173 2.3335 14.2302 2.36571 14.3282 2.4265C14.4261 2.48729 14.5051 2.57424 14.5562 2.67754L17.2512 8.13637C17.4287 8.49567 17.6908 8.80652 18.0149 9.04224C18.339 9.27795 18.7155 9.4315 19.112 9.48971L25.139 10.3717C25.2532 10.3883 25.3605 10.4364 25.4488 10.5108C25.537 10.5851 25.6027 10.6827 25.6384 10.7924C25.6741 10.9021 25.6783 11.0197 25.6507 11.1317C25.6231 11.2437 25.5646 11.3458 25.482 11.4264L21.1234 15.6707C20.8359 15.9508 20.6208 16.2966 20.4967 16.6783C20.3725 17.0599 20.3429 17.4661 20.4105 17.8617L21.4395 23.8584C21.4597 23.9725 21.4473 24.09 21.4039 24.1975C21.3605 24.305 21.2878 24.3981 21.194 24.4662C21.1002 24.5343 20.9892 24.5747 20.8735 24.5828C20.7579 24.5908 20.6423 24.5662 20.54 24.5117L15.1524 21.679C14.7974 21.4926 14.4024 21.3952 14.0014 21.3952C13.6005 21.3952 13.2055 21.4926 12.8505 21.679L7.46402 24.5117C7.36174 24.5659 7.24631 24.5902 7.13088 24.582C7.01544 24.5738 6.90462 24.5334 6.81103 24.4653C6.71743 24.3972 6.64482 24.3043 6.60145 24.197C6.55808 24.0897 6.54569 23.9724 6.56568 23.8584L7.59352 17.8629C7.66141 17.4671 7.632 17.0607 7.50781 16.6788C7.38362 16.2969 7.16839 15.9509 6.88068 15.6707L2.52202 11.4275C2.43871 11.3471 2.37968 11.2448 2.35164 11.1325C2.32361 11.0201 2.32769 10.9021 2.36344 10.7919C2.39919 10.6818 2.46516 10.5839 2.55384 10.5094C2.64252 10.4349 2.75034 10.3868 2.86502 10.3705L8.89085 9.48971C9.28782 9.43196 9.6648 9.27861 9.98937 9.04286C10.3139 8.80711 10.5763 8.49602 10.754 8.13637L13.4478 2.67754Z" stroke="#9810FA" stroke-width="2.33333" stroke-linecap="round" stroke-linejoin="round"/>
</svg>
