<svg width="81" height="80" viewBox="0 0 81 80" fill="none" xmlns="http://www.w3.org/2000/svg">
<path d="M37.572 0.0259855C37.8475 0.023355 37.8475 0.023355 38.1285 0.0206713C45.7636 -0.0357208 45.7636 -0.0357208 48.993 0.821672C49.288 0.897683 49.288 0.897683 49.589 0.975229C58.3163 3.27505 66.4086 8.17145 71.8467 15.4778C71.9956 15.6754 72.1445 15.873 72.2979 16.0765C73.5356 17.7795 74.5632 19.5963 75.5728 21.4396C75.7688 21.7869 75.7688 21.7869 75.9687 22.1412C80.7185 30.9965 81.1968 42.0412 78.4353 51.5719C76.5958 57.4786 76.5958 57.4786 74.3618 59.2755C72.9708 60.004 71.3736 59.9174 69.8594 59.6947C68.6018 59.208 67.686 58.4597 66.9872 57.3037C66.3287 55.6837 66.3492 54.0405 66.9221 52.3996C67.1125 51.95 67.3031 51.5004 67.5 51.0535C68.0952 49.671 68.4757 48.2724 68.8192 46.8085C68.8961 46.4852 68.8961 46.4852 68.9746 46.1555C70.6823 38.6614 69.1701 30.5241 65.0901 24.0208C63.9412 22.2745 62.6079 20.7119 61.1651 19.204C60.9374 18.9528 60.9374 18.9528 60.7051 18.6965C55.6868 13.3472 48.082 10.5144 40.8586 10.2622C33.2309 10.1636 25.5409 12.8349 20.0058 18.1485C19.6478 18.499 19.2915 18.8514 18.9355 19.204C18.768 19.3564 18.6005 19.5088 18.428 19.6658C13.3805 24.3322 10.7422 32.06 10.4498 38.7439C10.2169 47.0552 13.2528 54.5434 18.8792 60.6146C23.9189 65.8134 31.0779 69.1954 38.3502 69.4661C42.8764 69.5304 46.8109 68.9692 51.0429 67.3837C52.814 66.7372 54.2565 66.5331 56.0106 67.2867C57.2671 68.0193 58.1614 68.8787 58.6606 70.2637C59.0467 71.9203 58.9813 73.3288 58.1842 74.8477C56.1126 77.8815 50.6381 78.669 47.2541 79.319C46.9746 79.3751 46.695 79.4311 46.407 79.4888C36.1995 81.1881 25.2333 78.5888 16.8085 72.612C15.1699 71.4089 13.6887 70.0479 12.2284 68.6374C12.0014 68.4261 11.7744 68.2147 11.5404 67.997C4.39169 61.1653 0.325777 51.1977 0.00589985 41.3716C-0.177542 29.8914 3.91992 19.6101 11.8624 11.3577C18.4621 4.71155 28.1281 0.0863032 37.572 0.0259855Z" fill="#AEC7FF"/>
<path d="M54.2876 25.0415C55.4648 25.7197 56.4358 26.8418 56.8522 28.1447C57.3278 30.7732 56.2823 32.5496 54.8232 34.6897C54.4962 35.1543 54.1675 35.6178 53.8373 36.0802C53.4817 36.5847 53.1262 37.0893 52.7709 37.594C52.5947 37.8434 52.4185 38.0929 52.2369 38.3499C51.4927 39.4083 50.7621 40.4759 50.0336 41.5452C49.7713 41.9295 49.509 42.3138 49.2466 42.698C49.1213 42.8816 48.996 43.0653 48.8668 43.2545C48.1689 44.2759 47.468 45.2953 46.7659 46.3139C46.1871 47.1539 45.6111 47.9956 45.0392 48.8403C44.9188 49.0173 44.7985 49.1943 44.6745 49.3767C44.4471 49.7112 44.2205 50.0462 43.995 50.3819C41.6352 53.8455 41.6352 53.8455 39.5383 54.3538C38.0736 54.5979 36.8819 54.4592 35.5793 53.7328C34.5922 52.9819 33.6673 52.1752 32.7439 51.3482C32.1819 50.8519 31.5991 50.3831 31.0147 49.9135C29.4245 48.6194 27.8818 47.2715 26.3383 45.9225C26.0302 45.6556 25.7202 45.3912 25.4084 45.1287C25.2533 44.9981 25.0982 44.8674 24.9384 44.7328C24.7987 44.6162 24.6589 44.4996 24.515 44.3794C23.5854 43.5216 23.2399 42.5162 23.0996 41.2929C23.0424 39.618 23.4165 38.4077 24.5444 37.1486C25.6477 36.1224 26.6811 35.6384 28.2133 35.5747C30.8082 35.6749 32.3904 37.3324 34.213 39.0126C35.712 40.5504 35.712 40.5504 37.5665 41.3123C37.941 40.8338 37.941 40.8338 38.3428 40.179C39.3425 38.6406 40.381 37.1334 41.4324 35.63C42.9818 33.412 44.513 31.1827 46.0222 28.9371C48.0462 25.9452 50.3395 23.3506 54.2876 25.0415Z" fill="#155DFC"/>
</svg>
