<svg width="24" height="24" viewBox="0 0 24 24" fill="none" xmlns="http://www.w3.org/2000/svg">
<path d="M11.9953 21.9916C17.5161 21.9916 21.9916 17.5161 21.9916 11.9953C21.9916 6.47451 17.5161 1.99902 11.9953 1.99902C6.47451 1.99902 1.99902 6.47451 1.99902 11.9953C1.99902 17.5161 6.47451 21.9916 11.9953 21.9916Z" stroke="#155DFC" stroke-width="1.99926" stroke-linecap="round" stroke-linejoin="round"/>
<path d="M9.07666 8.9969C9.31168 8.32881 9.77555 7.76546 10.3861 7.40662C10.9967 7.04778 11.7146 6.91661 12.4126 7.03634C13.1106 7.15607 13.7437 7.51897 14.1998 8.06077C14.6559 8.60257 14.9055 9.28831 14.9045 9.99652C14.9045 11.9958 11.9056 12.9954 11.9056 12.9954" stroke="#155DFC" stroke-width="1.99926" stroke-linecap="round" stroke-linejoin="round"/>
<path d="M11.9854 16.9937H11.9954" stroke="#155DFC" stroke-width="1.99926" stroke-linecap="round" stroke-linejoin="round"/>
</svg>
